M48
; DRILL file {KiCad 8.0.9-8.0.9-0~ubuntu22.04.1} date 2026-05-05T20:47:04+0200
; FORMAT={-:-/ absolute / inch / decimal}
; #@! TF.CreationDate,2026-05-05T20:47:04+02:00
; #@! TF.GenerationSoftware,Kicad,Pcbnew,8.0.9-8.0.9-0~ubuntu22.04.1
; #@! TF.FileFunction,Plated,1,2,PTH
FMAT,2
INCH
; #@! TA.AperFunction,Plated,PTH,ComponentDrill
T1C0.0295
; #@! TA.AperFunction,Plated,PTH,ComponentDrill
T2C0.0315
; #@! TA.AperFunction,Plated,PTH,ComponentDrill
T3C0.0394
; #@! TA.AperFunction,Plated,PTH,ComponentDrill
T4C0.0402
; #@! TA.AperFunction,Plated,PTH,ComponentDrill
T5C0.0512
%
G90
G05
T1
X5.4028Y-3.0063
X5.4528Y-3.0063
X5.4815Y-4.522
X5.5028Y-3.0063
X5.5315Y-4.522
X5.5815Y-4.522
T2
X4.5571Y-3.3661
X4.6457Y-4.1535
X4.6457Y-4.4488
X4.8524Y-3.3661
X5.0197Y-3.4234
X5.0197Y-3.5234
X5.3642Y-3.3071
X5.3693Y-3.5614
X5.3693Y-3.6614
X5.3693Y-3.7614
X5.3693Y-3.8614
X5.4726Y-4.1732
X5.5726Y-4.1732
X5.6594Y-3.3071
X5.6693Y-3.5614
X5.6693Y-3.6614
X5.6693Y-3.7614
X5.6693Y-3.8614
X5.9055Y-3.2972
X5.9055Y-3.5925
T3
X6.2677Y-3.5827
X6.5669Y-3.5827
T4
X5.0591Y-4.252
X5.0591Y-4.352
X5.0591Y-4.452
X6.0413Y-3.0167
X6.1413Y-3.0167
X6.2413Y-3.0167
T5
X4.0551Y-3.878
X4.2087Y-4.0591
X4.3228Y-3.7795
X4.3701Y-3.6732
X4.4961Y-4.0394
X4.6457Y-3.9764
X4.6555Y-3.6614
X4.9016Y-3.9764
X4.9114Y-3.6614
X6.2057Y-4.2323
X6.2057Y-4.4291
X6.6978Y-4.2323
X6.6978Y-4.4291
M30
