%TF.GenerationSoftware,KiCad,Pcbnew,8.0.9-8.0.9-0~ubuntu22.04.1*%
%TF.CreationDate,2026-05-05T20:44:39+02:00*%
%TF.ProjectId,Yack_keyer,5961636b-5f6b-4657-9965-722e6b696361,rev?*%
%TF.SameCoordinates,Original*%
%TF.FileFunction,Legend,Top*%
%TF.FilePolarity,Positive*%
%FSLAX46Y46*%
G04 Gerber Fmt 4.6, Leading zero omitted, Abs format (unit mm)*
G04 Created by KiCad (PCBNEW 8.0.9-8.0.9-0~ubuntu22.04.1) date 2026-05-05 20:44:39*
%MOMM*%
%LPD*%
G01*
G04 APERTURE LIST*
%ADD10C,0.150000*%
%ADD11C,0.120000*%
G04 APERTURE END LIST*
D10*
X147939580Y-87666666D02*
X147987200Y-87714285D01*
X147987200Y-87714285D02*
X148034819Y-87857142D01*
X148034819Y-87857142D02*
X148034819Y-87952380D01*
X148034819Y-87952380D02*
X147987200Y-88095237D01*
X147987200Y-88095237D02*
X147891961Y-88190475D01*
X147891961Y-88190475D02*
X147796723Y-88238094D01*
X147796723Y-88238094D02*
X147606247Y-88285713D01*
X147606247Y-88285713D02*
X147463390Y-88285713D01*
X147463390Y-88285713D02*
X147272914Y-88238094D01*
X147272914Y-88238094D02*
X147177676Y-88190475D01*
X147177676Y-88190475D02*
X147082438Y-88095237D01*
X147082438Y-88095237D02*
X147034819Y-87952380D01*
X147034819Y-87952380D02*
X147034819Y-87857142D01*
X147034819Y-87857142D02*
X147082438Y-87714285D01*
X147082438Y-87714285D02*
X147130057Y-87666666D01*
X148034819Y-86714285D02*
X148034819Y-87285713D01*
X148034819Y-86999999D02*
X147034819Y-86999999D01*
X147034819Y-86999999D02*
X147177676Y-87095237D01*
X147177676Y-87095237D02*
X147272914Y-87190475D01*
X147272914Y-87190475D02*
X147320533Y-87285713D01*
X130324819Y-88391666D02*
X129848628Y-88724999D01*
X130324819Y-88963094D02*
X129324819Y-88963094D01*
X129324819Y-88963094D02*
X129324819Y-88582142D01*
X129324819Y-88582142D02*
X129372438Y-88486904D01*
X129372438Y-88486904D02*
X129420057Y-88439285D01*
X129420057Y-88439285D02*
X129515295Y-88391666D01*
X129515295Y-88391666D02*
X129658152Y-88391666D01*
X129658152Y-88391666D02*
X129753390Y-88439285D01*
X129753390Y-88439285D02*
X129801009Y-88486904D01*
X129801009Y-88486904D02*
X129848628Y-88582142D01*
X129848628Y-88582142D02*
X129848628Y-88963094D01*
X130324819Y-87439285D02*
X130324819Y-88010713D01*
X130324819Y-87724999D02*
X129324819Y-87724999D01*
X129324819Y-87724999D02*
X129467676Y-87820237D01*
X129467676Y-87820237D02*
X129562914Y-87915475D01*
X129562914Y-87915475D02*
X129610533Y-88010713D01*
X162169285Y-102449580D02*
X162121666Y-102497200D01*
X162121666Y-102497200D02*
X161978809Y-102544819D01*
X161978809Y-102544819D02*
X161883571Y-102544819D01*
X161883571Y-102544819D02*
X161740714Y-102497200D01*
X161740714Y-102497200D02*
X161645476Y-102401961D01*
X161645476Y-102401961D02*
X161597857Y-102306723D01*
X161597857Y-102306723D02*
X161550238Y-102116247D01*
X161550238Y-102116247D02*
X161550238Y-101973390D01*
X161550238Y-101973390D02*
X161597857Y-101782914D01*
X161597857Y-101782914D02*
X161645476Y-101687676D01*
X161645476Y-101687676D02*
X161740714Y-101592438D01*
X161740714Y-101592438D02*
X161883571Y-101544819D01*
X161883571Y-101544819D02*
X161978809Y-101544819D01*
X161978809Y-101544819D02*
X162121666Y-101592438D01*
X162121666Y-101592438D02*
X162169285Y-101640057D01*
X162597857Y-102544819D02*
X162597857Y-101878152D01*
X162597857Y-101973390D02*
X162645476Y-101925771D01*
X162645476Y-101925771D02*
X162740714Y-101878152D01*
X162740714Y-101878152D02*
X162883571Y-101878152D01*
X162883571Y-101878152D02*
X162978809Y-101925771D01*
X162978809Y-101925771D02*
X163026428Y-102021009D01*
X163026428Y-102021009D02*
X163026428Y-102544819D01*
X163026428Y-102021009D02*
X163074047Y-101925771D01*
X163074047Y-101925771D02*
X163169285Y-101878152D01*
X163169285Y-101878152D02*
X163312142Y-101878152D01*
X163312142Y-101878152D02*
X163407381Y-101925771D01*
X163407381Y-101925771D02*
X163455000Y-102021009D01*
X163455000Y-102021009D02*
X163455000Y-102544819D01*
X164359761Y-102544819D02*
X164359761Y-101544819D01*
X164359761Y-102497200D02*
X164264523Y-102544819D01*
X164264523Y-102544819D02*
X164074047Y-102544819D01*
X164074047Y-102544819D02*
X163978809Y-102497200D01*
X163978809Y-102497200D02*
X163931190Y-102449580D01*
X163931190Y-102449580D02*
X163883571Y-102354342D01*
X163883571Y-102354342D02*
X163883571Y-102068628D01*
X163883571Y-102068628D02*
X163931190Y-101973390D01*
X163931190Y-101973390D02*
X163978809Y-101925771D01*
X163978809Y-101925771D02*
X164074047Y-101878152D01*
X164074047Y-101878152D02*
X164264523Y-101878152D01*
X164264523Y-101878152D02*
X164359761Y-101925771D01*
X165359761Y-102544819D02*
X164788333Y-102544819D01*
X165074047Y-102544819D02*
X165074047Y-101544819D01*
X165074047Y-101544819D02*
X164978809Y-101687676D01*
X164978809Y-101687676D02*
X164883571Y-101782914D01*
X164883571Y-101782914D02*
X164788333Y-101830533D01*
X119818095Y-104154819D02*
X119818095Y-103154819D01*
X119818095Y-103154819D02*
X120056190Y-103154819D01*
X120056190Y-103154819D02*
X120199047Y-103202438D01*
X120199047Y-103202438D02*
X120294285Y-103297676D01*
X120294285Y-103297676D02*
X120341904Y-103392914D01*
X120341904Y-103392914D02*
X120389523Y-103583390D01*
X120389523Y-103583390D02*
X120389523Y-103726247D01*
X120389523Y-103726247D02*
X120341904Y-103916723D01*
X120341904Y-103916723D02*
X120294285Y-104011961D01*
X120294285Y-104011961D02*
X120199047Y-104107200D01*
X120199047Y-104107200D02*
X120056190Y-104154819D01*
X120056190Y-104154819D02*
X119818095Y-104154819D01*
X120818095Y-104154819D02*
X120818095Y-103488152D01*
X120818095Y-103154819D02*
X120770476Y-103202438D01*
X120770476Y-103202438D02*
X120818095Y-103250057D01*
X120818095Y-103250057D02*
X120865714Y-103202438D01*
X120865714Y-103202438D02*
X120818095Y-103154819D01*
X120818095Y-103154819D02*
X120818095Y-103250057D01*
X121151428Y-103488152D02*
X121532380Y-103488152D01*
X121294285Y-103154819D02*
X121294285Y-104011961D01*
X121294285Y-104011961D02*
X121341904Y-104107200D01*
X121341904Y-104107200D02*
X121437142Y-104154819D01*
X121437142Y-104154819D02*
X121532380Y-104154819D01*
X122389523Y-104154819D02*
X121818095Y-104154819D01*
X122103809Y-104154819D02*
X122103809Y-103154819D01*
X122103809Y-103154819D02*
X122008571Y-103297676D01*
X122008571Y-103297676D02*
X121913333Y-103392914D01*
X121913333Y-103392914D02*
X121818095Y-103440533D01*
X101090476Y-105854819D02*
X101090476Y-104854819D01*
X101090476Y-104854819D02*
X101471428Y-104854819D01*
X101471428Y-104854819D02*
X101566666Y-104902438D01*
X101566666Y-104902438D02*
X101614285Y-104950057D01*
X101614285Y-104950057D02*
X101661904Y-105045295D01*
X101661904Y-105045295D02*
X101661904Y-105188152D01*
X101661904Y-105188152D02*
X101614285Y-105283390D01*
X101614285Y-105283390D02*
X101566666Y-105331009D01*
X101566666Y-105331009D02*
X101471428Y-105378628D01*
X101471428Y-105378628D02*
X101090476Y-105378628D01*
X102519047Y-105854819D02*
X102519047Y-105331009D01*
X102519047Y-105331009D02*
X102471428Y-105235771D01*
X102471428Y-105235771D02*
X102376190Y-105188152D01*
X102376190Y-105188152D02*
X102185714Y-105188152D01*
X102185714Y-105188152D02*
X102090476Y-105235771D01*
X102519047Y-105807200D02*
X102423809Y-105854819D01*
X102423809Y-105854819D02*
X102185714Y-105854819D01*
X102185714Y-105854819D02*
X102090476Y-105807200D01*
X102090476Y-105807200D02*
X102042857Y-105711961D01*
X102042857Y-105711961D02*
X102042857Y-105616723D01*
X102042857Y-105616723D02*
X102090476Y-105521485D01*
X102090476Y-105521485D02*
X102185714Y-105473866D01*
X102185714Y-105473866D02*
X102423809Y-105473866D01*
X102423809Y-105473866D02*
X102519047Y-105426247D01*
X103423809Y-105854819D02*
X103423809Y-104854819D01*
X103423809Y-105807200D02*
X103328571Y-105854819D01*
X103328571Y-105854819D02*
X103138095Y-105854819D01*
X103138095Y-105854819D02*
X103042857Y-105807200D01*
X103042857Y-105807200D02*
X102995238Y-105759580D01*
X102995238Y-105759580D02*
X102947619Y-105664342D01*
X102947619Y-105664342D02*
X102947619Y-105378628D01*
X102947619Y-105378628D02*
X102995238Y-105283390D01*
X102995238Y-105283390D02*
X103042857Y-105235771D01*
X103042857Y-105235771D02*
X103138095Y-105188152D01*
X103138095Y-105188152D02*
X103328571Y-105188152D01*
X103328571Y-105188152D02*
X103423809Y-105235771D01*
X104328571Y-105854819D02*
X104328571Y-104854819D01*
X104328571Y-105807200D02*
X104233333Y-105854819D01*
X104233333Y-105854819D02*
X104042857Y-105854819D01*
X104042857Y-105854819D02*
X103947619Y-105807200D01*
X103947619Y-105807200D02*
X103900000Y-105759580D01*
X103900000Y-105759580D02*
X103852381Y-105664342D01*
X103852381Y-105664342D02*
X103852381Y-105378628D01*
X103852381Y-105378628D02*
X103900000Y-105283390D01*
X103900000Y-105283390D02*
X103947619Y-105235771D01*
X103947619Y-105235771D02*
X104042857Y-105188152D01*
X104042857Y-105188152D02*
X104233333Y-105188152D01*
X104233333Y-105188152D02*
X104328571Y-105235771D01*
X104947619Y-105854819D02*
X104852381Y-105807200D01*
X104852381Y-105807200D02*
X104804762Y-105711961D01*
X104804762Y-105711961D02*
X104804762Y-104854819D01*
X105709524Y-105807200D02*
X105614286Y-105854819D01*
X105614286Y-105854819D02*
X105423810Y-105854819D01*
X105423810Y-105854819D02*
X105328572Y-105807200D01*
X105328572Y-105807200D02*
X105280953Y-105711961D01*
X105280953Y-105711961D02*
X105280953Y-105331009D01*
X105280953Y-105331009D02*
X105328572Y-105235771D01*
X105328572Y-105235771D02*
X105423810Y-105188152D01*
X105423810Y-105188152D02*
X105614286Y-105188152D01*
X105614286Y-105188152D02*
X105709524Y-105235771D01*
X105709524Y-105235771D02*
X105757143Y-105331009D01*
X105757143Y-105331009D02*
X105757143Y-105426247D01*
X105757143Y-105426247D02*
X105280953Y-105521485D01*
X154140476Y-73679819D02*
X154140476Y-72679819D01*
X154140476Y-72679819D02*
X154521428Y-72679819D01*
X154521428Y-72679819D02*
X154616666Y-72727438D01*
X154616666Y-72727438D02*
X154664285Y-72775057D01*
X154664285Y-72775057D02*
X154711904Y-72870295D01*
X154711904Y-72870295D02*
X154711904Y-73013152D01*
X154711904Y-73013152D02*
X154664285Y-73108390D01*
X154664285Y-73108390D02*
X154616666Y-73156009D01*
X154616666Y-73156009D02*
X154521428Y-73203628D01*
X154521428Y-73203628D02*
X154140476Y-73203628D01*
X155045238Y-72679819D02*
X155283333Y-73679819D01*
X155283333Y-73679819D02*
X155473809Y-72965533D01*
X155473809Y-72965533D02*
X155664285Y-73679819D01*
X155664285Y-73679819D02*
X155902381Y-72679819D01*
X156854761Y-73679819D02*
X156521428Y-73203628D01*
X156283333Y-73679819D02*
X156283333Y-72679819D01*
X156283333Y-72679819D02*
X156664285Y-72679819D01*
X156664285Y-72679819D02*
X156759523Y-72727438D01*
X156759523Y-72727438D02*
X156807142Y-72775057D01*
X156807142Y-72775057D02*
X156854761Y-72870295D01*
X156854761Y-72870295D02*
X156854761Y-73013152D01*
X156854761Y-73013152D02*
X156807142Y-73108390D01*
X156807142Y-73108390D02*
X156759523Y-73156009D01*
X156759523Y-73156009D02*
X156664285Y-73203628D01*
X156664285Y-73203628D02*
X156283333Y-73203628D01*
X157807142Y-73679819D02*
X157235714Y-73679819D01*
X157521428Y-73679819D02*
X157521428Y-72679819D01*
X157521428Y-72679819D02*
X157426190Y-72822676D01*
X157426190Y-72822676D02*
X157330952Y-72917914D01*
X157330952Y-72917914D02*
X157235714Y-72965533D01*
X140108333Y-108824819D02*
X139775000Y-108348628D01*
X139536905Y-108824819D02*
X139536905Y-107824819D01*
X139536905Y-107824819D02*
X139917857Y-107824819D01*
X139917857Y-107824819D02*
X140013095Y-107872438D01*
X140013095Y-107872438D02*
X140060714Y-107920057D01*
X140060714Y-107920057D02*
X140108333Y-108015295D01*
X140108333Y-108015295D02*
X140108333Y-108158152D01*
X140108333Y-108158152D02*
X140060714Y-108253390D01*
X140060714Y-108253390D02*
X140013095Y-108301009D01*
X140013095Y-108301009D02*
X139917857Y-108348628D01*
X139917857Y-108348628D02*
X139536905Y-108348628D01*
X140489286Y-107920057D02*
X140536905Y-107872438D01*
X140536905Y-107872438D02*
X140632143Y-107824819D01*
X140632143Y-107824819D02*
X140870238Y-107824819D01*
X140870238Y-107824819D02*
X140965476Y-107872438D01*
X140965476Y-107872438D02*
X141013095Y-107920057D01*
X141013095Y-107920057D02*
X141060714Y-108015295D01*
X141060714Y-108015295D02*
X141060714Y-108110533D01*
X141060714Y-108110533D02*
X141013095Y-108253390D01*
X141013095Y-108253390D02*
X140441667Y-108824819D01*
X140441667Y-108824819D02*
X141060714Y-108824819D01*
X135928571Y-73254819D02*
X135452381Y-73254819D01*
X135452381Y-73254819D02*
X135452381Y-72254819D01*
X136261905Y-73254819D02*
X136261905Y-72254819D01*
X136261905Y-72254819D02*
X136595238Y-72969104D01*
X136595238Y-72969104D02*
X136928571Y-72254819D01*
X136928571Y-72254819D02*
X136928571Y-73254819D01*
X137309524Y-72254819D02*
X137976190Y-72254819D01*
X137976190Y-72254819D02*
X137547619Y-73254819D01*
X138500000Y-72683390D02*
X138404762Y-72635771D01*
X138404762Y-72635771D02*
X138357143Y-72588152D01*
X138357143Y-72588152D02*
X138309524Y-72492914D01*
X138309524Y-72492914D02*
X138309524Y-72445295D01*
X138309524Y-72445295D02*
X138357143Y-72350057D01*
X138357143Y-72350057D02*
X138404762Y-72302438D01*
X138404762Y-72302438D02*
X138500000Y-72254819D01*
X138500000Y-72254819D02*
X138690476Y-72254819D01*
X138690476Y-72254819D02*
X138785714Y-72302438D01*
X138785714Y-72302438D02*
X138833333Y-72350057D01*
X138833333Y-72350057D02*
X138880952Y-72445295D01*
X138880952Y-72445295D02*
X138880952Y-72492914D01*
X138880952Y-72492914D02*
X138833333Y-72588152D01*
X138833333Y-72588152D02*
X138785714Y-72635771D01*
X138785714Y-72635771D02*
X138690476Y-72683390D01*
X138690476Y-72683390D02*
X138500000Y-72683390D01*
X138500000Y-72683390D02*
X138404762Y-72731009D01*
X138404762Y-72731009D02*
X138357143Y-72778628D01*
X138357143Y-72778628D02*
X138309524Y-72873866D01*
X138309524Y-72873866D02*
X138309524Y-73064342D01*
X138309524Y-73064342D02*
X138357143Y-73159580D01*
X138357143Y-73159580D02*
X138404762Y-73207200D01*
X138404762Y-73207200D02*
X138500000Y-73254819D01*
X138500000Y-73254819D02*
X138690476Y-73254819D01*
X138690476Y-73254819D02*
X138785714Y-73207200D01*
X138785714Y-73207200D02*
X138833333Y-73159580D01*
X138833333Y-73159580D02*
X138880952Y-73064342D01*
X138880952Y-73064342D02*
X138880952Y-72873866D01*
X138880952Y-72873866D02*
X138833333Y-72778628D01*
X138833333Y-72778628D02*
X138785714Y-72731009D01*
X138785714Y-72731009D02*
X138690476Y-72683390D01*
X139785714Y-73254819D02*
X139309524Y-73254819D01*
X139309524Y-73254819D02*
X139309524Y-72254819D01*
X140309524Y-72254819D02*
X140404762Y-72254819D01*
X140404762Y-72254819D02*
X140500000Y-72302438D01*
X140500000Y-72302438D02*
X140547619Y-72350057D01*
X140547619Y-72350057D02*
X140595238Y-72445295D01*
X140595238Y-72445295D02*
X140642857Y-72635771D01*
X140642857Y-72635771D02*
X140642857Y-72873866D01*
X140642857Y-72873866D02*
X140595238Y-73064342D01*
X140595238Y-73064342D02*
X140547619Y-73159580D01*
X140547619Y-73159580D02*
X140500000Y-73207200D01*
X140500000Y-73207200D02*
X140404762Y-73254819D01*
X140404762Y-73254819D02*
X140309524Y-73254819D01*
X140309524Y-73254819D02*
X140214286Y-73207200D01*
X140214286Y-73207200D02*
X140166667Y-73159580D01*
X140166667Y-73159580D02*
X140119048Y-73064342D01*
X140119048Y-73064342D02*
X140071429Y-72873866D01*
X140071429Y-72873866D02*
X140071429Y-72635771D01*
X140071429Y-72635771D02*
X140119048Y-72445295D01*
X140119048Y-72445295D02*
X140166667Y-72350057D01*
X140166667Y-72350057D02*
X140214286Y-72302438D01*
X140214286Y-72302438D02*
X140309524Y-72254819D01*
X141547619Y-72254819D02*
X141071429Y-72254819D01*
X141071429Y-72254819D02*
X141023810Y-72731009D01*
X141023810Y-72731009D02*
X141071429Y-72683390D01*
X141071429Y-72683390D02*
X141166667Y-72635771D01*
X141166667Y-72635771D02*
X141404762Y-72635771D01*
X141404762Y-72635771D02*
X141500000Y-72683390D01*
X141500000Y-72683390D02*
X141547619Y-72731009D01*
X141547619Y-72731009D02*
X141595238Y-72826247D01*
X141595238Y-72826247D02*
X141595238Y-73064342D01*
X141595238Y-73064342D02*
X141547619Y-73159580D01*
X141547619Y-73159580D02*
X141500000Y-73207200D01*
X141500000Y-73207200D02*
X141404762Y-73254819D01*
X141404762Y-73254819D02*
X141166667Y-73254819D01*
X141166667Y-73254819D02*
X141071429Y-73207200D01*
X141071429Y-73207200D02*
X141023810Y-73159580D01*
X137261428Y-88299104D02*
X137737618Y-88299104D01*
X137166190Y-88584819D02*
X137499523Y-87584819D01*
X137499523Y-87584819D02*
X137832856Y-88584819D01*
X138023333Y-87584819D02*
X138594761Y-87584819D01*
X138309047Y-88584819D02*
X138309047Y-87584819D01*
X138785238Y-87918152D02*
X139166190Y-87918152D01*
X138928095Y-87584819D02*
X138928095Y-88441961D01*
X138928095Y-88441961D02*
X138975714Y-88537200D01*
X138975714Y-88537200D02*
X139070952Y-88584819D01*
X139070952Y-88584819D02*
X139166190Y-88584819D01*
X139499524Y-88584819D02*
X139499524Y-87918152D01*
X139499524Y-87584819D02*
X139451905Y-87632438D01*
X139451905Y-87632438D02*
X139499524Y-87680057D01*
X139499524Y-87680057D02*
X139547143Y-87632438D01*
X139547143Y-87632438D02*
X139499524Y-87584819D01*
X139499524Y-87584819D02*
X139499524Y-87680057D01*
X139975714Y-87918152D02*
X139975714Y-88584819D01*
X139975714Y-88013390D02*
X140023333Y-87965771D01*
X140023333Y-87965771D02*
X140118571Y-87918152D01*
X140118571Y-87918152D02*
X140261428Y-87918152D01*
X140261428Y-87918152D02*
X140356666Y-87965771D01*
X140356666Y-87965771D02*
X140404285Y-88061009D01*
X140404285Y-88061009D02*
X140404285Y-88584819D01*
X140785238Y-87918152D02*
X141023333Y-88584819D01*
X141261428Y-87918152D02*
X141023333Y-88584819D01*
X141023333Y-88584819D02*
X140928095Y-88822914D01*
X140928095Y-88822914D02*
X140880476Y-88870533D01*
X140880476Y-88870533D02*
X140785238Y-88918152D01*
X141785238Y-88013390D02*
X141690000Y-87965771D01*
X141690000Y-87965771D02*
X141642381Y-87918152D01*
X141642381Y-87918152D02*
X141594762Y-87822914D01*
X141594762Y-87822914D02*
X141594762Y-87775295D01*
X141594762Y-87775295D02*
X141642381Y-87680057D01*
X141642381Y-87680057D02*
X141690000Y-87632438D01*
X141690000Y-87632438D02*
X141785238Y-87584819D01*
X141785238Y-87584819D02*
X141975714Y-87584819D01*
X141975714Y-87584819D02*
X142070952Y-87632438D01*
X142070952Y-87632438D02*
X142118571Y-87680057D01*
X142118571Y-87680057D02*
X142166190Y-87775295D01*
X142166190Y-87775295D02*
X142166190Y-87822914D01*
X142166190Y-87822914D02*
X142118571Y-87918152D01*
X142118571Y-87918152D02*
X142070952Y-87965771D01*
X142070952Y-87965771D02*
X141975714Y-88013390D01*
X141975714Y-88013390D02*
X141785238Y-88013390D01*
X141785238Y-88013390D02*
X141690000Y-88061009D01*
X141690000Y-88061009D02*
X141642381Y-88108628D01*
X141642381Y-88108628D02*
X141594762Y-88203866D01*
X141594762Y-88203866D02*
X141594762Y-88394342D01*
X141594762Y-88394342D02*
X141642381Y-88489580D01*
X141642381Y-88489580D02*
X141690000Y-88537200D01*
X141690000Y-88537200D02*
X141785238Y-88584819D01*
X141785238Y-88584819D02*
X141975714Y-88584819D01*
X141975714Y-88584819D02*
X142070952Y-88537200D01*
X142070952Y-88537200D02*
X142118571Y-88489580D01*
X142118571Y-88489580D02*
X142166190Y-88394342D01*
X142166190Y-88394342D02*
X142166190Y-88203866D01*
X142166190Y-88203866D02*
X142118571Y-88108628D01*
X142118571Y-88108628D02*
X142070952Y-88061009D01*
X142070952Y-88061009D02*
X141975714Y-88013390D01*
X143070952Y-87584819D02*
X142594762Y-87584819D01*
X142594762Y-87584819D02*
X142547143Y-88061009D01*
X142547143Y-88061009D02*
X142594762Y-88013390D01*
X142594762Y-88013390D02*
X142690000Y-87965771D01*
X142690000Y-87965771D02*
X142928095Y-87965771D01*
X142928095Y-87965771D02*
X143023333Y-88013390D01*
X143023333Y-88013390D02*
X143070952Y-88061009D01*
X143070952Y-88061009D02*
X143118571Y-88156247D01*
X143118571Y-88156247D02*
X143118571Y-88394342D01*
X143118571Y-88394342D02*
X143070952Y-88489580D01*
X143070952Y-88489580D02*
X143023333Y-88537200D01*
X143023333Y-88537200D02*
X142928095Y-88584819D01*
X142928095Y-88584819D02*
X142690000Y-88584819D01*
X142690000Y-88584819D02*
X142594762Y-88537200D01*
X142594762Y-88537200D02*
X142547143Y-88489580D01*
X139333333Y-111231009D02*
X139000000Y-111231009D01*
X139000000Y-111754819D02*
X139000000Y-110754819D01*
X139000000Y-110754819D02*
X139476190Y-110754819D01*
X139857143Y-111231009D02*
X140190476Y-111231009D01*
X140333333Y-111754819D02*
X139857143Y-111754819D01*
X139857143Y-111754819D02*
X139857143Y-110754819D01*
X139857143Y-110754819D02*
X140333333Y-110754819D01*
X140619048Y-110754819D02*
X141190476Y-110754819D01*
X140904762Y-111754819D02*
X140904762Y-110754819D01*
X142047619Y-111754819D02*
X141476191Y-111754819D01*
X141761905Y-111754819D02*
X141761905Y-110754819D01*
X141761905Y-110754819D02*
X141666667Y-110897676D01*
X141666667Y-110897676D02*
X141571429Y-110992914D01*
X141571429Y-110992914D02*
X141476191Y-111040533D01*
X119333333Y-88279580D02*
X119285714Y-88327200D01*
X119285714Y-88327200D02*
X119142857Y-88374819D01*
X119142857Y-88374819D02*
X119047619Y-88374819D01*
X119047619Y-88374819D02*
X118904762Y-88327200D01*
X118904762Y-88327200D02*
X118809524Y-88231961D01*
X118809524Y-88231961D02*
X118761905Y-88136723D01*
X118761905Y-88136723D02*
X118714286Y-87946247D01*
X118714286Y-87946247D02*
X118714286Y-87803390D01*
X118714286Y-87803390D02*
X118761905Y-87612914D01*
X118761905Y-87612914D02*
X118809524Y-87517676D01*
X118809524Y-87517676D02*
X118904762Y-87422438D01*
X118904762Y-87422438D02*
X119047619Y-87374819D01*
X119047619Y-87374819D02*
X119142857Y-87374819D01*
X119142857Y-87374819D02*
X119285714Y-87422438D01*
X119285714Y-87422438D02*
X119333333Y-87470057D01*
X120190476Y-87708152D02*
X120190476Y-88374819D01*
X119952381Y-87327200D02*
X119714286Y-88041485D01*
X119714286Y-88041485D02*
X120333333Y-88041485D01*
X139833333Y-86779580D02*
X139785714Y-86827200D01*
X139785714Y-86827200D02*
X139642857Y-86874819D01*
X139642857Y-86874819D02*
X139547619Y-86874819D01*
X139547619Y-86874819D02*
X139404762Y-86827200D01*
X139404762Y-86827200D02*
X139309524Y-86731961D01*
X139309524Y-86731961D02*
X139261905Y-86636723D01*
X139261905Y-86636723D02*
X139214286Y-86446247D01*
X139214286Y-86446247D02*
X139214286Y-86303390D01*
X139214286Y-86303390D02*
X139261905Y-86112914D01*
X139261905Y-86112914D02*
X139309524Y-86017676D01*
X139309524Y-86017676D02*
X139404762Y-85922438D01*
X139404762Y-85922438D02*
X139547619Y-85874819D01*
X139547619Y-85874819D02*
X139642857Y-85874819D01*
X139642857Y-85874819D02*
X139785714Y-85922438D01*
X139785714Y-85922438D02*
X139833333Y-85970057D01*
X140214286Y-85970057D02*
X140261905Y-85922438D01*
X140261905Y-85922438D02*
X140357143Y-85874819D01*
X140357143Y-85874819D02*
X140595238Y-85874819D01*
X140595238Y-85874819D02*
X140690476Y-85922438D01*
X140690476Y-85922438D02*
X140738095Y-85970057D01*
X140738095Y-85970057D02*
X140785714Y-86065295D01*
X140785714Y-86065295D02*
X140785714Y-86160533D01*
X140785714Y-86160533D02*
X140738095Y-86303390D01*
X140738095Y-86303390D02*
X140166667Y-86874819D01*
X140166667Y-86874819D02*
X140785714Y-86874819D01*
X115939580Y-109416666D02*
X115987200Y-109464285D01*
X115987200Y-109464285D02*
X116034819Y-109607142D01*
X116034819Y-109607142D02*
X116034819Y-109702380D01*
X116034819Y-109702380D02*
X115987200Y-109845237D01*
X115987200Y-109845237D02*
X115891961Y-109940475D01*
X115891961Y-109940475D02*
X115796723Y-109988094D01*
X115796723Y-109988094D02*
X115606247Y-110035713D01*
X115606247Y-110035713D02*
X115463390Y-110035713D01*
X115463390Y-110035713D02*
X115272914Y-109988094D01*
X115272914Y-109988094D02*
X115177676Y-109940475D01*
X115177676Y-109940475D02*
X115082438Y-109845237D01*
X115082438Y-109845237D02*
X115034819Y-109702380D01*
X115034819Y-109702380D02*
X115034819Y-109607142D01*
X115034819Y-109607142D02*
X115082438Y-109464285D01*
X115082438Y-109464285D02*
X115130057Y-109416666D01*
X115034819Y-109083332D02*
X115034819Y-108464285D01*
X115034819Y-108464285D02*
X115415771Y-108797618D01*
X115415771Y-108797618D02*
X115415771Y-108654761D01*
X115415771Y-108654761D02*
X115463390Y-108559523D01*
X115463390Y-108559523D02*
X115511009Y-108511904D01*
X115511009Y-108511904D02*
X115606247Y-108464285D01*
X115606247Y-108464285D02*
X115844342Y-108464285D01*
X115844342Y-108464285D02*
X115939580Y-108511904D01*
X115939580Y-108511904D02*
X115987200Y-108559523D01*
X115987200Y-108559523D02*
X116034819Y-108654761D01*
X116034819Y-108654761D02*
X116034819Y-108940475D01*
X116034819Y-108940475D02*
X115987200Y-109035713D01*
X115987200Y-109035713D02*
X115939580Y-109083332D01*
X132354819Y-111404761D02*
X131878628Y-111738094D01*
X132354819Y-111976189D02*
X131354819Y-111976189D01*
X131354819Y-111976189D02*
X131354819Y-111595237D01*
X131354819Y-111595237D02*
X131402438Y-111499999D01*
X131402438Y-111499999D02*
X131450057Y-111452380D01*
X131450057Y-111452380D02*
X131545295Y-111404761D01*
X131545295Y-111404761D02*
X131688152Y-111404761D01*
X131688152Y-111404761D02*
X131783390Y-111452380D01*
X131783390Y-111452380D02*
X131831009Y-111499999D01*
X131831009Y-111499999D02*
X131878628Y-111595237D01*
X131878628Y-111595237D02*
X131878628Y-111976189D01*
X132354819Y-110976189D02*
X131354819Y-110976189D01*
X131402438Y-109976190D02*
X131354819Y-110071428D01*
X131354819Y-110071428D02*
X131354819Y-110214285D01*
X131354819Y-110214285D02*
X131402438Y-110357142D01*
X131402438Y-110357142D02*
X131497676Y-110452380D01*
X131497676Y-110452380D02*
X131592914Y-110499999D01*
X131592914Y-110499999D02*
X131783390Y-110547618D01*
X131783390Y-110547618D02*
X131926247Y-110547618D01*
X131926247Y-110547618D02*
X132116723Y-110499999D01*
X132116723Y-110499999D02*
X132211961Y-110452380D01*
X132211961Y-110452380D02*
X132307200Y-110357142D01*
X132307200Y-110357142D02*
X132354819Y-110214285D01*
X132354819Y-110214285D02*
X132354819Y-110119047D01*
X132354819Y-110119047D02*
X132307200Y-109976190D01*
X132307200Y-109976190D02*
X132259580Y-109928571D01*
X132259580Y-109928571D02*
X131926247Y-109928571D01*
X131926247Y-109928571D02*
X131926247Y-110119047D01*
X132354819Y-108976190D02*
X132354819Y-109547618D01*
X132354819Y-109261904D02*
X131354819Y-109261904D01*
X131354819Y-109261904D02*
X131497676Y-109357142D01*
X131497676Y-109357142D02*
X131592914Y-109452380D01*
X131592914Y-109452380D02*
X131640533Y-109547618D01*
X162119047Y-83731009D02*
X162261904Y-83778628D01*
X162261904Y-83778628D02*
X162309523Y-83826247D01*
X162309523Y-83826247D02*
X162357142Y-83921485D01*
X162357142Y-83921485D02*
X162357142Y-84064342D01*
X162357142Y-84064342D02*
X162309523Y-84159580D01*
X162309523Y-84159580D02*
X162261904Y-84207200D01*
X162261904Y-84207200D02*
X162166666Y-84254819D01*
X162166666Y-84254819D02*
X161785714Y-84254819D01*
X161785714Y-84254819D02*
X161785714Y-83254819D01*
X161785714Y-83254819D02*
X162119047Y-83254819D01*
X162119047Y-83254819D02*
X162214285Y-83302438D01*
X162214285Y-83302438D02*
X162261904Y-83350057D01*
X162261904Y-83350057D02*
X162309523Y-83445295D01*
X162309523Y-83445295D02*
X162309523Y-83540533D01*
X162309523Y-83540533D02*
X162261904Y-83635771D01*
X162261904Y-83635771D02*
X162214285Y-83683390D01*
X162214285Y-83683390D02*
X162119047Y-83731009D01*
X162119047Y-83731009D02*
X161785714Y-83731009D01*
X162690476Y-83254819D02*
X163357142Y-83254819D01*
X163357142Y-83254819D02*
X162690476Y-84254819D01*
X162690476Y-84254819D02*
X163357142Y-84254819D01*
X164261904Y-84254819D02*
X163690476Y-84254819D01*
X163976190Y-84254819D02*
X163976190Y-83254819D01*
X163976190Y-83254819D02*
X163880952Y-83397676D01*
X163880952Y-83397676D02*
X163785714Y-83492914D01*
X163785714Y-83492914D02*
X163690476Y-83540533D01*
X158809048Y-88533866D02*
X159570953Y-88533866D01*
X159190000Y-88914819D02*
X159190000Y-88152914D01*
X119687143Y-96154819D02*
X119687143Y-95154819D01*
X119687143Y-95154819D02*
X119925238Y-95154819D01*
X119925238Y-95154819D02*
X120068095Y-95202438D01*
X120068095Y-95202438D02*
X120163333Y-95297676D01*
X120163333Y-95297676D02*
X120210952Y-95392914D01*
X120210952Y-95392914D02*
X120258571Y-95583390D01*
X120258571Y-95583390D02*
X120258571Y-95726247D01*
X120258571Y-95726247D02*
X120210952Y-95916723D01*
X120210952Y-95916723D02*
X120163333Y-96011961D01*
X120163333Y-96011961D02*
X120068095Y-96107200D01*
X120068095Y-96107200D02*
X119925238Y-96154819D01*
X119925238Y-96154819D02*
X119687143Y-96154819D01*
X121115714Y-96154819D02*
X121115714Y-95631009D01*
X121115714Y-95631009D02*
X121068095Y-95535771D01*
X121068095Y-95535771D02*
X120972857Y-95488152D01*
X120972857Y-95488152D02*
X120782381Y-95488152D01*
X120782381Y-95488152D02*
X120687143Y-95535771D01*
X121115714Y-96107200D02*
X121020476Y-96154819D01*
X121020476Y-96154819D02*
X120782381Y-96154819D01*
X120782381Y-96154819D02*
X120687143Y-96107200D01*
X120687143Y-96107200D02*
X120639524Y-96011961D01*
X120639524Y-96011961D02*
X120639524Y-95916723D01*
X120639524Y-95916723D02*
X120687143Y-95821485D01*
X120687143Y-95821485D02*
X120782381Y-95773866D01*
X120782381Y-95773866D02*
X121020476Y-95773866D01*
X121020476Y-95773866D02*
X121115714Y-95726247D01*
X121591905Y-96154819D02*
X121591905Y-95154819D01*
X122020476Y-96154819D02*
X122020476Y-95631009D01*
X122020476Y-95631009D02*
X121972857Y-95535771D01*
X121972857Y-95535771D02*
X121877619Y-95488152D01*
X121877619Y-95488152D02*
X121734762Y-95488152D01*
X121734762Y-95488152D02*
X121639524Y-95535771D01*
X121639524Y-95535771D02*
X121591905Y-95583390D01*
X123020476Y-96154819D02*
X122449048Y-96154819D01*
X122734762Y-96154819D02*
X122734762Y-95154819D01*
X122734762Y-95154819D02*
X122639524Y-95297676D01*
X122639524Y-95297676D02*
X122544286Y-95392914D01*
X122544286Y-95392914D02*
X122449048Y-95440533D01*
D11*
%TO.C,C1*%
X148580000Y-85480000D02*
X148580000Y-89520000D01*
X148580000Y-89520000D02*
X151420000Y-89520000D01*
X150000000Y-84790000D02*
X150000000Y-85480000D01*
X150000000Y-90210000D02*
X150000000Y-89520000D01*
X151420000Y-85480000D02*
X148580000Y-85480000D01*
X151420000Y-89520000D02*
X151420000Y-85480000D01*
%TO.C,R1*%
X127500000Y-88325000D02*
X127500000Y-88395000D01*
X128870000Y-86955000D02*
G75*
G02*
X126130000Y-86955000I-1370000J0D01*
G01*
X126130000Y-86955000D02*
G75*
G02*
X128870000Y-86955000I1370000J0D01*
G01*
%TO.C,Cmd1*%
X157765000Y-103890000D02*
X157765000Y-106400000D01*
X157765000Y-103890000D02*
X169985000Y-103890000D01*
X157765000Y-108700000D02*
X157765000Y-111300000D01*
X157765000Y-113600000D02*
X157765000Y-116110000D01*
X169985000Y-103890000D02*
X169985000Y-106400000D01*
X169985000Y-108700000D02*
X169985000Y-111300000D01*
X169985000Y-113600000D02*
X169985000Y-116110000D01*
X169985000Y-116110000D02*
X157765000Y-116110000D01*
X167425000Y-110000000D02*
G75*
G02*
X160325000Y-110000000I-3550000J0D01*
G01*
X160325000Y-110000000D02*
G75*
G02*
X167425000Y-110000000I3550000J0D01*
G01*
%TO.C,Dit1*%
X118150000Y-99610000D02*
X118150000Y-99150000D01*
X118150000Y-102850000D02*
X118150000Y-102390000D01*
X118150000Y-102850000D02*
X124350000Y-102850000D01*
X124350000Y-99150000D02*
X118150000Y-99150000D01*
X124350000Y-99610000D02*
X124350000Y-99150000D01*
X124350000Y-102390000D02*
X125350000Y-102390000D01*
X124350000Y-102850000D02*
X124350000Y-102390000D01*
X122750000Y-101550000D02*
X119900000Y-101550000D01*
X119900000Y-100500000D01*
X122750000Y-100500000D01*
X122750000Y-101550000D01*
D10*
%TO.C,Paddle*%
X97500000Y-95400000D02*
X97500000Y-101600000D01*
X97500000Y-101600000D02*
X101100000Y-101600000D01*
X101100000Y-92300000D02*
X108850000Y-92300000D01*
X101100000Y-95400000D02*
X97500000Y-95400000D01*
X101100000Y-104100000D02*
X101100000Y-92300000D01*
X104650000Y-104100000D02*
X101100000Y-104100000D01*
D11*
X106400000Y-105150000D02*
X107400000Y-105150000D01*
X106900000Y-104600000D02*
X106400000Y-105150000D01*
X107400000Y-105150000D02*
X106900000Y-104600000D01*
D10*
X112900000Y-104100000D02*
X109150000Y-104100000D01*
X113200000Y-92300000D02*
X115600000Y-92300000D01*
X115600000Y-92300000D02*
X115600000Y-104100000D01*
X115600000Y-104100000D02*
X115500000Y-104100000D01*
D11*
%TO.C,PWR1*%
X152100000Y-73975000D02*
X159900000Y-73975000D01*
X152100000Y-80025000D02*
X152100000Y-73975000D01*
X153450000Y-78915000D02*
X158530000Y-78915000D01*
X153450000Y-79925000D02*
X153450000Y-78915000D01*
X158530000Y-78915000D02*
X158530000Y-79925000D01*
X159900000Y-73975000D02*
X159900000Y-80025000D01*
X159900000Y-80025000D02*
X152100000Y-80025000D01*
%TO.C,R2*%
X140175000Y-106000000D02*
X140105000Y-106000000D01*
X142915000Y-106000000D02*
G75*
G02*
X140175000Y-106000000I-1370000J0D01*
G01*
X140175000Y-106000000D02*
G75*
G02*
X142915000Y-106000000I1370000J0D01*
G01*
%TO.C,LM78L05*%
X136700000Y-78210000D02*
X140300000Y-78210000D01*
X136661522Y-78198478D02*
G75*
G02*
X138500000Y-73759999I1838478J1838478D01*
G01*
X138500000Y-73760000D02*
G75*
G02*
X140338478Y-78198478I0J-2600000D01*
G01*
%TO.C,ATtiny85*%
X137540000Y-89130000D02*
X137540000Y-99410000D01*
X137540000Y-99410000D02*
X142840000Y-99410000D01*
X139190000Y-89130000D02*
X137540000Y-89130000D01*
X142840000Y-89130000D02*
X141190000Y-89130000D01*
X142840000Y-99410000D02*
X142840000Y-89130000D01*
X141190000Y-89130000D02*
G75*
G02*
X139190000Y-89130000I-1000000J0D01*
G01*
%TO.C,FET1*%
X138700000Y-116710000D02*
X142300000Y-116710000D01*
X138661522Y-116698478D02*
G75*
G02*
X140500000Y-112259999I1838478J1838478D01*
G01*
X140500000Y-112260000D02*
G75*
G02*
X142338478Y-116698478I0J-2600000D01*
G01*
%TO.C,C4*%
X116790000Y-85500000D02*
X117480000Y-85500000D01*
X117480000Y-84080000D02*
X117480000Y-86920000D01*
X117480000Y-86920000D02*
X121520000Y-86920000D01*
X121520000Y-84080000D02*
X117480000Y-84080000D01*
X121520000Y-86920000D02*
X121520000Y-84080000D01*
X122210000Y-85500000D02*
X121520000Y-85500000D01*
%TO.C,C2*%
X137290000Y-84000000D02*
X137980000Y-84000000D01*
X137980000Y-82580000D02*
X137980000Y-85420000D01*
X137980000Y-85420000D02*
X142020000Y-85420000D01*
X142020000Y-82580000D02*
X137980000Y-82580000D01*
X142020000Y-85420000D02*
X142020000Y-82580000D01*
X142710000Y-84000000D02*
X142020000Y-84000000D01*
%TO.C,C3*%
X116580000Y-107230000D02*
X116580000Y-111270000D01*
X116580000Y-111270000D02*
X119420000Y-111270000D01*
X118000000Y-106540000D02*
X118000000Y-107230000D01*
X118000000Y-111960000D02*
X118000000Y-111270000D01*
X119420000Y-107230000D02*
X116580000Y-107230000D01*
X119420000Y-111270000D02*
X119420000Y-107230000D01*
%TO.C,RIG1*%
X125100000Y-106650000D02*
X131150000Y-106650000D01*
X125100000Y-114450000D02*
X125100000Y-106650000D01*
X125200000Y-108000000D02*
X126210000Y-108000000D01*
X126210000Y-108000000D02*
X126210000Y-113080000D01*
X126210000Y-113080000D02*
X125200000Y-113080000D01*
X131150000Y-106650000D02*
X131150000Y-114450000D01*
X131150000Y-114450000D02*
X125100000Y-114450000D01*
%TO.C,BZ1*%
X169100000Y-91000000D02*
G75*
G02*
X156900000Y-91000000I-6100000J0D01*
G01*
X156900000Y-91000000D02*
G75*
G02*
X169100000Y-91000000I6100000J0D01*
G01*
%TO.C,Dah1*%
X118400000Y-91610000D02*
X118400000Y-91150000D01*
X118400000Y-94850000D02*
X118400000Y-94390000D01*
X118400000Y-94850000D02*
X124600000Y-94850000D01*
X124600000Y-91150000D02*
X118400000Y-91150000D01*
X124600000Y-91610000D02*
X124600000Y-91150000D01*
X124600000Y-94390000D02*
X125600000Y-94390000D01*
X124600000Y-94850000D02*
X124600000Y-94390000D01*
X123000000Y-93550000D02*
X120150000Y-93550000D01*
X120150000Y-92500000D01*
X123000000Y-92500000D01*
X123000000Y-93550000D01*
%TD*%
M02*
