%TF.GenerationSoftware,KiCad,Pcbnew,8.0.9-8.0.9-0~ubuntu22.04.1*%
%TF.CreationDate,2026-05-05T20:44:39+02:00*%
%TF.ProjectId,Yack_keyer,5961636b-5f6b-4657-9965-722e6b696361,rev?*%
%TF.SameCoordinates,Original*%
%TF.FileFunction,Copper,L1,Top*%
%TF.FilePolarity,Positive*%
%FSLAX46Y46*%
G04 Gerber Fmt 4.6, Leading zero omitted, Abs format (unit mm)*
G04 Created by KiCad (PCBNEW 8.0.9-8.0.9-0~ubuntu22.04.1) date 2026-05-05 20:44:39*
%MOMM*%
%LPD*%
G01*
G04 APERTURE LIST*
%ADD10C,0.300000*%
%TA.AperFunction,NonConductor*%
%ADD11C,0.300000*%
%TD*%
%TA.AperFunction,ComponentPad*%
%ADD12C,1.600000*%
%TD*%
%TA.AperFunction,ComponentPad*%
%ADD13O,1.600000X1.600000*%
%TD*%
%TA.AperFunction,ComponentPad*%
%ADD14O,3.200000X1.900000*%
%TD*%
%TA.AperFunction,ComponentPad*%
%ADD15R,2.250000X2.250000*%
%TD*%
%TA.AperFunction,ComponentPad*%
%ADD16C,2.250000*%
%TD*%
%TA.AperFunction,ComponentPad*%
%ADD17O,4.000000X2.200000*%
%TD*%
%TA.AperFunction,ComponentPad*%
%ADD18O,2.200000X4.000000*%
%TD*%
%TA.AperFunction,ComponentPad*%
%ADD19R,4.000000X2.200000*%
%TD*%
%TA.AperFunction,ComponentPad*%
%ADD20R,1.730000X2.030000*%
%TD*%
%TA.AperFunction,ComponentPad*%
%ADD21O,1.730000X2.030000*%
%TD*%
%TA.AperFunction,ComponentPad*%
%ADD22R,1.050000X1.500000*%
%TD*%
%TA.AperFunction,ComponentPad*%
%ADD23O,1.050000X1.500000*%
%TD*%
%TA.AperFunction,ComponentPad*%
%ADD24R,1.600000X1.600000*%
%TD*%
%TA.AperFunction,ComponentPad*%
%ADD25R,2.030000X1.730000*%
%TD*%
%TA.AperFunction,ComponentPad*%
%ADD26O,2.030000X1.730000*%
%TD*%
%TA.AperFunction,ComponentPad*%
%ADD27R,2.000000X2.000000*%
%TD*%
%TA.AperFunction,ComponentPad*%
%ADD28C,2.000000*%
%TD*%
%TA.AperFunction,Conductor*%
%ADD29C,0.200000*%
%TD*%
G04 APERTURE END LIST*
D10*
D11*
X107840225Y-74586542D02*
X107840225Y-75300828D01*
X107340225Y-73800828D02*
X107840225Y-74586542D01*
X107840225Y-74586542D02*
X108340225Y-73800828D01*
X109483082Y-75300828D02*
X109483082Y-74515114D01*
X109483082Y-74515114D02*
X109411653Y-74372257D01*
X109411653Y-74372257D02*
X109268796Y-74300828D01*
X109268796Y-74300828D02*
X108983082Y-74300828D01*
X108983082Y-74300828D02*
X108840224Y-74372257D01*
X109483082Y-75229400D02*
X109340224Y-75300828D01*
X109340224Y-75300828D02*
X108983082Y-75300828D01*
X108983082Y-75300828D02*
X108840224Y-75229400D01*
X108840224Y-75229400D02*
X108768796Y-75086542D01*
X108768796Y-75086542D02*
X108768796Y-74943685D01*
X108768796Y-74943685D02*
X108840224Y-74800828D01*
X108840224Y-74800828D02*
X108983082Y-74729400D01*
X108983082Y-74729400D02*
X109340224Y-74729400D01*
X109340224Y-74729400D02*
X109483082Y-74657971D01*
X110840225Y-75229400D02*
X110697367Y-75300828D01*
X110697367Y-75300828D02*
X110411653Y-75300828D01*
X110411653Y-75300828D02*
X110268796Y-75229400D01*
X110268796Y-75229400D02*
X110197367Y-75157971D01*
X110197367Y-75157971D02*
X110125939Y-75015114D01*
X110125939Y-75015114D02*
X110125939Y-74586542D01*
X110125939Y-74586542D02*
X110197367Y-74443685D01*
X110197367Y-74443685D02*
X110268796Y-74372257D01*
X110268796Y-74372257D02*
X110411653Y-74300828D01*
X110411653Y-74300828D02*
X110697367Y-74300828D01*
X110697367Y-74300828D02*
X110840225Y-74372257D01*
X111483081Y-75300828D02*
X111483081Y-73800828D01*
X111625939Y-74729400D02*
X112054510Y-75300828D01*
X112054510Y-74300828D02*
X111483081Y-74872257D01*
X112340225Y-75443685D02*
X113483082Y-75443685D01*
X113840224Y-75300828D02*
X113840224Y-73800828D01*
X113983082Y-74729400D02*
X114411653Y-75300828D01*
X114411653Y-74300828D02*
X113840224Y-74872257D01*
X115625939Y-75229400D02*
X115483082Y-75300828D01*
X115483082Y-75300828D02*
X115197368Y-75300828D01*
X115197368Y-75300828D02*
X115054510Y-75229400D01*
X115054510Y-75229400D02*
X114983082Y-75086542D01*
X114983082Y-75086542D02*
X114983082Y-74515114D01*
X114983082Y-74515114D02*
X115054510Y-74372257D01*
X115054510Y-74372257D02*
X115197368Y-74300828D01*
X115197368Y-74300828D02*
X115483082Y-74300828D01*
X115483082Y-74300828D02*
X115625939Y-74372257D01*
X115625939Y-74372257D02*
X115697368Y-74515114D01*
X115697368Y-74515114D02*
X115697368Y-74657971D01*
X115697368Y-74657971D02*
X114983082Y-74800828D01*
X116197367Y-74300828D02*
X116554510Y-75300828D01*
X116911653Y-74300828D02*
X116554510Y-75300828D01*
X116554510Y-75300828D02*
X116411653Y-75657971D01*
X116411653Y-75657971D02*
X116340224Y-75729400D01*
X116340224Y-75729400D02*
X116197367Y-75800828D01*
X118054510Y-75229400D02*
X117911653Y-75300828D01*
X117911653Y-75300828D02*
X117625939Y-75300828D01*
X117625939Y-75300828D02*
X117483081Y-75229400D01*
X117483081Y-75229400D02*
X117411653Y-75086542D01*
X117411653Y-75086542D02*
X117411653Y-74515114D01*
X117411653Y-74515114D02*
X117483081Y-74372257D01*
X117483081Y-74372257D02*
X117625939Y-74300828D01*
X117625939Y-74300828D02*
X117911653Y-74300828D01*
X117911653Y-74300828D02*
X118054510Y-74372257D01*
X118054510Y-74372257D02*
X118125939Y-74515114D01*
X118125939Y-74515114D02*
X118125939Y-74657971D01*
X118125939Y-74657971D02*
X117411653Y-74800828D01*
X118768795Y-75300828D02*
X118768795Y-74300828D01*
X118768795Y-74586542D02*
X118840224Y-74443685D01*
X118840224Y-74443685D02*
X118911653Y-74372257D01*
X118911653Y-74372257D02*
X119054510Y-74300828D01*
X119054510Y-74300828D02*
X119197367Y-74300828D01*
D10*
D11*
X115625939Y-79800828D02*
X115911653Y-79800828D01*
X115911653Y-79800828D02*
X116054510Y-79729400D01*
X116054510Y-79729400D02*
X116125939Y-79657971D01*
X116125939Y-79657971D02*
X116268796Y-79443685D01*
X116268796Y-79443685D02*
X116340225Y-79157971D01*
X116340225Y-79157971D02*
X116340225Y-78586542D01*
X116340225Y-78586542D02*
X116268796Y-78443685D01*
X116268796Y-78443685D02*
X116197368Y-78372257D01*
X116197368Y-78372257D02*
X116054510Y-78300828D01*
X116054510Y-78300828D02*
X115768796Y-78300828D01*
X115768796Y-78300828D02*
X115625939Y-78372257D01*
X115625939Y-78372257D02*
X115554510Y-78443685D01*
X115554510Y-78443685D02*
X115483082Y-78586542D01*
X115483082Y-78586542D02*
X115483082Y-78943685D01*
X115483082Y-78943685D02*
X115554510Y-79086542D01*
X115554510Y-79086542D02*
X115625939Y-79157971D01*
X115625939Y-79157971D02*
X115768796Y-79229400D01*
X115768796Y-79229400D02*
X116054510Y-79229400D01*
X116054510Y-79229400D02*
X116197368Y-79157971D01*
X116197368Y-79157971D02*
X116268796Y-79086542D01*
X116268796Y-79086542D02*
X116340225Y-78943685D01*
X117625939Y-79800828D02*
X117625939Y-79015114D01*
X117625939Y-79015114D02*
X117554510Y-78872257D01*
X117554510Y-78872257D02*
X117411653Y-78800828D01*
X117411653Y-78800828D02*
X117125939Y-78800828D01*
X117125939Y-78800828D02*
X116983081Y-78872257D01*
X117625939Y-79729400D02*
X117483081Y-79800828D01*
X117483081Y-79800828D02*
X117125939Y-79800828D01*
X117125939Y-79800828D02*
X116983081Y-79729400D01*
X116983081Y-79729400D02*
X116911653Y-79586542D01*
X116911653Y-79586542D02*
X116911653Y-79443685D01*
X116911653Y-79443685D02*
X116983081Y-79300828D01*
X116983081Y-79300828D02*
X117125939Y-79229400D01*
X117125939Y-79229400D02*
X117483081Y-79229400D01*
X117483081Y-79229400D02*
X117625939Y-79157971D01*
X118983082Y-78800828D02*
X118983082Y-79800828D01*
X118625939Y-78229400D02*
X118268796Y-79300828D01*
X118268796Y-79300828D02*
X119197367Y-79300828D01*
X119768795Y-79800828D02*
X119768795Y-78300828D01*
X119911653Y-79229400D02*
X120340224Y-79800828D01*
X120340224Y-78800828D02*
X119768795Y-79372257D01*
X120983081Y-78800828D02*
X120983081Y-80086542D01*
X120983081Y-80086542D02*
X120911653Y-80229400D01*
X120911653Y-80229400D02*
X120768796Y-80300828D01*
X120768796Y-80300828D02*
X120697367Y-80300828D01*
X120983081Y-78300828D02*
X120911653Y-78372257D01*
X120911653Y-78372257D02*
X120983081Y-78443685D01*
X120983081Y-78443685D02*
X121054510Y-78372257D01*
X121054510Y-78372257D02*
X120983081Y-78300828D01*
X120983081Y-78300828D02*
X120983081Y-78443685D01*
X122768796Y-78443685D02*
X122840224Y-78372257D01*
X122840224Y-78372257D02*
X122983082Y-78300828D01*
X122983082Y-78300828D02*
X123340224Y-78300828D01*
X123340224Y-78300828D02*
X123483082Y-78372257D01*
X123483082Y-78372257D02*
X123554510Y-78443685D01*
X123554510Y-78443685D02*
X123625939Y-78586542D01*
X123625939Y-78586542D02*
X123625939Y-78729400D01*
X123625939Y-78729400D02*
X123554510Y-78943685D01*
X123554510Y-78943685D02*
X122697367Y-79800828D01*
X122697367Y-79800828D02*
X123625939Y-79800828D01*
X124554510Y-78300828D02*
X124697367Y-78300828D01*
X124697367Y-78300828D02*
X124840224Y-78372257D01*
X124840224Y-78372257D02*
X124911653Y-78443685D01*
X124911653Y-78443685D02*
X124983081Y-78586542D01*
X124983081Y-78586542D02*
X125054510Y-78872257D01*
X125054510Y-78872257D02*
X125054510Y-79229400D01*
X125054510Y-79229400D02*
X124983081Y-79515114D01*
X124983081Y-79515114D02*
X124911653Y-79657971D01*
X124911653Y-79657971D02*
X124840224Y-79729400D01*
X124840224Y-79729400D02*
X124697367Y-79800828D01*
X124697367Y-79800828D02*
X124554510Y-79800828D01*
X124554510Y-79800828D02*
X124411653Y-79729400D01*
X124411653Y-79729400D02*
X124340224Y-79657971D01*
X124340224Y-79657971D02*
X124268795Y-79515114D01*
X124268795Y-79515114D02*
X124197367Y-79229400D01*
X124197367Y-79229400D02*
X124197367Y-78872257D01*
X124197367Y-78872257D02*
X124268795Y-78586542D01*
X124268795Y-78586542D02*
X124340224Y-78443685D01*
X124340224Y-78443685D02*
X124411653Y-78372257D01*
X124411653Y-78372257D02*
X124554510Y-78300828D01*
X125625938Y-78443685D02*
X125697366Y-78372257D01*
X125697366Y-78372257D02*
X125840224Y-78300828D01*
X125840224Y-78300828D02*
X126197366Y-78300828D01*
X126197366Y-78300828D02*
X126340224Y-78372257D01*
X126340224Y-78372257D02*
X126411652Y-78443685D01*
X126411652Y-78443685D02*
X126483081Y-78586542D01*
X126483081Y-78586542D02*
X126483081Y-78729400D01*
X126483081Y-78729400D02*
X126411652Y-78943685D01*
X126411652Y-78943685D02*
X125554509Y-79800828D01*
X125554509Y-79800828D02*
X126483081Y-79800828D01*
X127768795Y-78300828D02*
X127483080Y-78300828D01*
X127483080Y-78300828D02*
X127340223Y-78372257D01*
X127340223Y-78372257D02*
X127268795Y-78443685D01*
X127268795Y-78443685D02*
X127125937Y-78657971D01*
X127125937Y-78657971D02*
X127054509Y-78943685D01*
X127054509Y-78943685D02*
X127054509Y-79515114D01*
X127054509Y-79515114D02*
X127125937Y-79657971D01*
X127125937Y-79657971D02*
X127197366Y-79729400D01*
X127197366Y-79729400D02*
X127340223Y-79800828D01*
X127340223Y-79800828D02*
X127625937Y-79800828D01*
X127625937Y-79800828D02*
X127768795Y-79729400D01*
X127768795Y-79729400D02*
X127840223Y-79657971D01*
X127840223Y-79657971D02*
X127911652Y-79515114D01*
X127911652Y-79515114D02*
X127911652Y-79157971D01*
X127911652Y-79157971D02*
X127840223Y-79015114D01*
X127840223Y-79015114D02*
X127768795Y-78943685D01*
X127768795Y-78943685D02*
X127625937Y-78872257D01*
X127625937Y-78872257D02*
X127340223Y-78872257D01*
X127340223Y-78872257D02*
X127197366Y-78943685D01*
X127197366Y-78943685D02*
X127125937Y-79015114D01*
X127125937Y-79015114D02*
X127054509Y-79157971D01*
D12*
%TO.P,C1,1*%
%TO.N,+5V*%
X150000000Y-91250000D03*
D13*
%TO.P,C1,2*%
%TO.N,GND*%
X150000000Y-83750000D03*
%TD*%
D12*
%TO.P,R1,1*%
%TO.N,+5V*%
X127500000Y-86955000D03*
D13*
%TO.P,R1,2*%
%TO.N,Net-(ATtiny85-~{RESET}{slash}PB5)*%
X127500000Y-89495000D03*
%TD*%
D14*
%TO.P,Cmd1,1,1*%
%TO.N,GND*%
X157625000Y-107500000D03*
X170125000Y-107500000D03*
%TO.P,Cmd1,2,2*%
%TO.N,Net-(ATtiny85-PB2)*%
X157625000Y-112500000D03*
X170125000Y-112500000D03*
%TD*%
D15*
%TO.P,Dit1,1,1*%
%TO.N,Net-(ATtiny85-XTAL2{slash}PB4)*%
X124500000Y-101000000D03*
D16*
%TO.P,Dit1,2,2*%
%TO.N,GND*%
X118000000Y-101000000D03*
%TD*%
D17*
%TO.P,Paddle,R*%
%TO.N,N/C*%
X111000000Y-93300000D03*
%TO.P,Paddle,RN*%
X109800000Y-96000000D03*
D18*
%TO.P,Paddle,S*%
X103000000Y-98500000D03*
D19*
%TO.P,Paddle,T*%
X106900000Y-103100000D03*
D18*
%TO.P,Paddle,TN*%
X114200000Y-102600000D03*
%TD*%
D20*
%TO.P,PWR1,1*%
%TO.N,VCC*%
X153450000Y-76625000D03*
D21*
%TO.P,PWR1,2*%
%TO.N,GND*%
X155990000Y-76625000D03*
%TO.P,PWR1,3*%
%TO.N,N/C*%
X158530000Y-76625000D03*
%TD*%
D12*
%TO.P,R2,1*%
%TO.N,Net-(ATtiny85-AREF{slash}PB0)*%
X141545000Y-106000000D03*
D13*
%TO.P,R2,2*%
%TO.N,GND*%
X139005000Y-106000000D03*
%TD*%
D22*
%TO.P,LM78L05,1,VO*%
%TO.N,+5V*%
X137230000Y-76360000D03*
D23*
%TO.P,LM78L05,2,GND*%
%TO.N,GND*%
X138500000Y-76360000D03*
%TO.P,LM78L05,3,VI*%
%TO.N,VCC*%
X139770000Y-76360000D03*
%TD*%
D24*
%TO.P,ATtiny85,1,~{RESET}/PB5*%
%TO.N,Net-(ATtiny85-~{RESET}{slash}PB5)*%
X136380000Y-90460000D03*
D13*
%TO.P,ATtiny85,2,XTAL1/PB3*%
%TO.N,Net-(ATtiny85-XTAL1{slash}PB3)*%
X136380000Y-93000000D03*
%TO.P,ATtiny85,3,XTAL2/PB4*%
%TO.N,Net-(ATtiny85-XTAL2{slash}PB4)*%
X136380000Y-95540000D03*
%TO.P,ATtiny85,4,GND*%
%TO.N,GND*%
X136380000Y-98080000D03*
%TO.P,ATtiny85,5,AREF/PB0*%
%TO.N,Net-(ATtiny85-AREF{slash}PB0)*%
X144000000Y-98080000D03*
%TO.P,ATtiny85,6,PB1*%
%TO.N,Net-(ATtiny85-PB1)*%
X144000000Y-95540000D03*
%TO.P,ATtiny85,7,PB2*%
%TO.N,Net-(ATtiny85-PB2)*%
X144000000Y-93000000D03*
%TO.P,ATtiny85,8,VCC*%
%TO.N,+5V*%
X144000000Y-90460000D03*
%TD*%
D22*
%TO.P,FET1,1,S*%
%TO.N,GND*%
X139230000Y-114860000D03*
D23*
%TO.P,FET1,2,G*%
%TO.N,Net-(ATtiny85-AREF{slash}PB0)*%
X140500000Y-114860000D03*
%TO.P,FET1,3,D*%
%TO.N,Net-(FET1-D)*%
X141770000Y-114860000D03*
%TD*%
D12*
%TO.P,C4,1*%
%TO.N,Net-(ATtiny85-XTAL1{slash}PB3)*%
X123250000Y-85500000D03*
D13*
%TO.P,C4,2*%
%TO.N,GND*%
X115750000Y-85500000D03*
%TD*%
D12*
%TO.P,C2,1*%
%TO.N,+5V*%
X143750000Y-84000000D03*
D13*
%TO.P,C2,2*%
%TO.N,GND*%
X136250000Y-84000000D03*
%TD*%
D12*
%TO.P,C3,1*%
%TO.N,Net-(ATtiny85-XTAL2{slash}PB4)*%
X118000000Y-113000000D03*
D13*
%TO.P,C3,2*%
%TO.N,GND*%
X118000000Y-105500000D03*
%TD*%
D25*
%TO.P,RIG1,1*%
%TO.N,Net-(FET1-D)*%
X128500000Y-108000000D03*
D26*
%TO.P,RIG1,2*%
%TO.N,GND*%
X128500000Y-110540000D03*
%TO.P,RIG1,3*%
%TO.N,N/C*%
X128500000Y-113080000D03*
%TD*%
D27*
%TO.P,BZ1,1,+*%
%TO.N,Net-(ATtiny85-PB1)*%
X159200000Y-91000000D03*
D28*
%TO.P,BZ1,2,-*%
%TO.N,GND*%
X166800000Y-91000000D03*
%TD*%
D15*
%TO.P,Dah1,1,1*%
%TO.N,Net-(ATtiny85-XTAL1{slash}PB3)*%
X124750000Y-93000000D03*
D16*
%TO.P,Dah1,2,2*%
%TO.N,GND*%
X118250000Y-93000000D03*
%TD*%
D29*
%TO.N,GND*%
X139005000Y-114635000D02*
X139230000Y-114860000D01*
%TO.N,VCC*%
X147395000Y-76625000D02*
X147270000Y-76500000D01*
X139770000Y-76360000D02*
X153185000Y-76360000D01*
X153185000Y-76360000D02*
X153450000Y-76625000D01*
%TO.N,Net-(ATtiny85-XTAL2{slash}PB4)*%
X124500000Y-101000000D02*
X124500000Y-106500000D01*
X130920000Y-101000000D02*
X136380000Y-95540000D01*
X124500000Y-106500000D02*
X118000000Y-113000000D01*
X124500000Y-101000000D02*
X130920000Y-101000000D01*
%TO.N,Net-(ATtiny85-~{RESET}{slash}PB5)*%
X135415000Y-89495000D02*
X136380000Y-90460000D01*
X135955000Y-90460000D02*
X136380000Y-90460000D01*
X127500000Y-89495000D02*
X135415000Y-89495000D01*
%TO.N,+5V*%
X150000000Y-91250000D02*
X150000000Y-91500000D01*
X137230000Y-76360000D02*
X137230000Y-77225000D01*
X150000000Y-91250000D02*
X149250000Y-91250000D01*
X137230000Y-77480000D02*
X143750000Y-84000000D01*
X144000000Y-85000000D02*
X144000000Y-90460000D01*
X137230000Y-77225000D02*
X127500000Y-86955000D01*
X149250000Y-91250000D02*
X148460000Y-90460000D01*
X143750000Y-84000000D02*
X143750000Y-84750000D01*
X137230000Y-76360000D02*
X137230000Y-77480000D01*
X149500000Y-92000000D02*
X150000000Y-91500000D01*
X143750000Y-84750000D02*
X144000000Y-85000000D01*
X148460000Y-90460000D02*
X144000000Y-90460000D01*
%TO.N,Net-(ATtiny85-PB1)*%
X154660000Y-95540000D02*
X144000000Y-95540000D01*
X159200000Y-91000000D02*
X154660000Y-95540000D01*
%TO.N,Net-(ATtiny85-PB2)*%
X170125000Y-112500000D02*
X157625000Y-112500000D01*
%TO.N,Net-(ATtiny85-XTAL1{slash}PB3)*%
X123250000Y-91500000D02*
X124750000Y-93000000D01*
X124750000Y-93000000D02*
X136380000Y-93000000D01*
X123250000Y-85500000D02*
X123250000Y-91500000D01*
%TO.N,Net-(ATtiny85-AREF{slash}PB0)*%
X140500000Y-107045000D02*
X140500000Y-114860000D01*
X141545000Y-100535000D02*
X144000000Y-98080000D01*
X141545000Y-106000000D02*
X140500000Y-107045000D01*
X141545000Y-106000000D02*
X141545000Y-100535000D01*
%TO.N,Net-(FET1-D)*%
X141770000Y-115085000D02*
X141770000Y-114860000D01*
X136410000Y-115910000D02*
X128500000Y-108000000D01*
X141770000Y-114860000D02*
X141770000Y-114981726D01*
X140841726Y-115910000D02*
X136410000Y-115910000D01*
X141770000Y-114981726D02*
X140841726Y-115910000D01*
%TD*%
M02*
