%TF.GenerationSoftware,KiCad,Pcbnew,8.0.9-8.0.9-0~ubuntu22.04.1*%
%TF.CreationDate,2026-05-05T20:44:39+02:00*%
%TF.ProjectId,Yack_keyer,5961636b-5f6b-4657-9965-722e6b696361,rev?*%
%TF.SameCoordinates,Original*%
%TF.FileFunction,Soldermask,Top*%
%TF.FilePolarity,Negative*%
%FSLAX46Y46*%
G04 Gerber Fmt 4.6, Leading zero omitted, Abs format (unit mm)*
G04 Created by KiCad (PCBNEW 8.0.9-8.0.9-0~ubuntu22.04.1) date 2026-05-05 20:44:39*
%MOMM*%
%LPD*%
G01*
G04 APERTURE LIST*
%ADD10C,1.600000*%
%ADD11O,1.600000X1.600000*%
%ADD12O,3.200000X1.900000*%
%ADD13R,2.250000X2.250000*%
%ADD14C,2.250000*%
%ADD15O,4.000000X2.200000*%
%ADD16O,2.200000X4.000000*%
%ADD17R,4.000000X2.200000*%
%ADD18R,1.730000X2.030000*%
%ADD19O,1.730000X2.030000*%
%ADD20R,1.050000X1.500000*%
%ADD21O,1.050000X1.500000*%
%ADD22R,1.600000X1.600000*%
%ADD23R,2.030000X1.730000*%
%ADD24O,2.030000X1.730000*%
%ADD25R,2.000000X2.000000*%
%ADD26C,2.000000*%
G04 APERTURE END LIST*
D10*
%TO.C,C1*%
X150000000Y-91250000D03*
D11*
X150000000Y-83750000D03*
%TD*%
D10*
%TO.C,R1*%
X127500000Y-86955000D03*
D11*
X127500000Y-89495000D03*
%TD*%
D12*
%TO.C,Cmd1*%
X157625000Y-107500000D03*
X170125000Y-107500000D03*
X157625000Y-112500000D03*
X170125000Y-112500000D03*
%TD*%
D13*
%TO.C,Dit1*%
X124500000Y-101000000D03*
D14*
X118000000Y-101000000D03*
%TD*%
D15*
%TO.C,Paddle*%
X111000000Y-93300000D03*
X109800000Y-96000000D03*
D16*
X103000000Y-98500000D03*
D17*
X106900000Y-103100000D03*
D16*
X114200000Y-102600000D03*
%TD*%
D18*
%TO.C,PWR1*%
X153450000Y-76625000D03*
D19*
X155990000Y-76625000D03*
X158530000Y-76625000D03*
%TD*%
D10*
%TO.C,R2*%
X141545000Y-106000000D03*
D11*
X139005000Y-106000000D03*
%TD*%
D20*
%TO.C,LM78L05*%
X137230000Y-76360000D03*
D21*
X138500000Y-76360000D03*
X139770000Y-76360000D03*
%TD*%
D22*
%TO.C,ATtiny85*%
X136380000Y-90460000D03*
D11*
X136380000Y-93000000D03*
X136380000Y-95540000D03*
X136380000Y-98080000D03*
X144000000Y-98080000D03*
X144000000Y-95540000D03*
X144000000Y-93000000D03*
X144000000Y-90460000D03*
%TD*%
D20*
%TO.C,FET1*%
X139230000Y-114860000D03*
D21*
X140500000Y-114860000D03*
X141770000Y-114860000D03*
%TD*%
D10*
%TO.C,C4*%
X123250000Y-85500000D03*
D11*
X115750000Y-85500000D03*
%TD*%
D10*
%TO.C,C2*%
X143750000Y-84000000D03*
D11*
X136250000Y-84000000D03*
%TD*%
D10*
%TO.C,C3*%
X118000000Y-113000000D03*
D11*
X118000000Y-105500000D03*
%TD*%
D23*
%TO.C,RIG1*%
X128500000Y-108000000D03*
D24*
X128500000Y-110540000D03*
X128500000Y-113080000D03*
%TD*%
D25*
%TO.C,BZ1*%
X159200000Y-91000000D03*
D26*
X166800000Y-91000000D03*
%TD*%
D13*
%TO.C,Dah1*%
X124750000Y-93000000D03*
D14*
X118250000Y-93000000D03*
%TD*%
M02*
